<mxfile host="65bd71144e">
    <diagram id="ve65MtMdwrNU4WV3d9z4" name="Page-1">
        <mxGraphModel dx="1388" dy="1416" grid="1" gridSize="10" guides="1" tooltips="1" connect="1" arrows="1" fold="1" page="1" pageScale="1" pageWidth="850" pageHeight="1100" math="0" shadow="0" adaptiveColors="simple">
            <root>
                <object label="" id="0">
                    <mxCell/>
                </object>
                <mxCell id="1" parent="0"/>
                <mxCell id="62" value="" style="whiteSpace=wrap;html=1;" parent="1" vertex="1">
                    <mxGeometry x="-330" y="-710" width="1090" height="630" as="geometry"/>
                </mxCell>
                <mxCell id="45" value="Book" style="swimlane;childLayout=stackLayout;horizontal=1;startSize=50;horizontalStack=0;rounded=1;fontSize=14;fontStyle=0;strokeWidth=2;resizeParent=0;resizeLast=1;shadow=0;dashed=0;align=center;arcSize=4;whiteSpace=wrap;html=1;" parent="1" vertex="1">
                    <mxGeometry x="60" y="-475" width="160" height="125" as="geometry">
                        <mxRectangle x="120" y="-360" width="70" height="50" as="alternateBounds"/>
                    </mxGeometry>
                </mxCell>
                <mxCell id="46" value="+&lt;span style=&quot;color: rgb(63, 63, 63); scrollbar-color: rgb(226, 226, 226) rgb(251, 251, 251);&quot;&gt;id&lt;/span&gt;&lt;u style=&quot;color: rgb(63, 63, 63); scrollbar-color: rgb(226, 226, 226) rgb(251, 251, 251);&quot;&gt;(&lt;/u&gt;&lt;span style=&quot;color: rgb(63, 63, 63); scrollbar-color: rgb(226, 226, 226) rgb(251, 251, 251);&quot;&gt;PK&lt;/span&gt;&lt;u style=&quot;color: rgb(63, 63, 63); scrollbar-color: rgb(226, 226, 226) rgb(251, 251, 251);&quot;&gt;)&lt;/u&gt;&lt;div style=&quot;color: rgb(63, 63, 63); scrollbar-color: rgb(226, 226, 226) rgb(251, 251, 251);&quot;&gt;+title&lt;/div&gt;&lt;div style=&quot;color: rgb(63, 63, 63); scrollbar-color: rgb(226, 226, 226) rgb(251, 251, 251);&quot;&gt;+category_id&lt;/div&gt;&lt;div style=&quot;color: rgb(63, 63, 63); scrollbar-color: rgb(226, 226, 226) rgb(251, 251, 251);&quot;&gt;+isbn&lt;/div&gt;&lt;div style=&quot;color: rgb(63, 63, 63); scrollbar-color: rgb(226, 226, 226) rgb(251, 251, 251);&quot;&gt;&lt;br&gt;&lt;/div&gt;&lt;div style=&quot;color: rgb(63, 63, 63); scrollbar-color: rgb(226, 226, 226) rgb(251, 251, 251);&quot;&gt;&lt;br style=&quot;color: rgb(63, 63, 63); scrollbar-color: rgb(226, 226, 226) rgb(251, 251, 251);&quot;&gt;&lt;/div&gt;" style="align=left;strokeColor=none;fillColor=none;spacingLeft=4;fontSize=12;verticalAlign=top;resizable=0;rotatable=0;part=1;html=1;" parent="45" vertex="1">
                    <mxGeometry y="50" width="160" height="75" as="geometry"/>
                </mxCell>
                <mxCell id="47" value="Member" style="swimlane;childLayout=stackLayout;horizontal=1;startSize=50;horizontalStack=0;rounded=1;fontSize=14;fontStyle=0;strokeWidth=2;resizeParent=0;resizeLast=1;shadow=0;dashed=0;align=center;arcSize=4;whiteSpace=wrap;html=1;" parent="1" vertex="1">
                    <mxGeometry x="560" y="-495" width="160" height="230" as="geometry">
                        <mxRectangle x="650" y="-320" width="90" height="50" as="alternateBounds"/>
                    </mxGeometry>
                </mxCell>
                <mxCell id="48" value="+member_id(PK)&lt;div&gt;+name&lt;/div&gt;&lt;div&gt;+email&lt;/div&gt;&lt;div&gt;+phone_number&lt;/div&gt;&lt;div&gt;+roll_no&lt;/div&gt;&lt;div&gt;+image&lt;/div&gt;&lt;div&gt;+year&lt;/div&gt;&lt;div&gt;+major&lt;/div&gt;&lt;div&gt;+gender&lt;/div&gt;&lt;div&gt;+qr_code&lt;/div&gt;&lt;div&gt;+registration_date&lt;/div&gt;&lt;div&gt;+expired_at&lt;/div&gt;" style="align=left;strokeColor=none;fillColor=none;spacingLeft=4;fontSize=12;verticalAlign=top;resizable=0;rotatable=0;part=1;html=1;" parent="47" vertex="1">
                    <mxGeometry y="50" width="160" height="180" as="geometry"/>
                </mxCell>
                <mxCell id="49" value="Borrowing" style="swimlane;childLayout=stackLayout;horizontal=1;startSize=50;horizontalStack=0;rounded=1;fontSize=14;fontStyle=0;strokeWidth=2;resizeParent=0;resizeLast=1;shadow=0;dashed=0;align=center;arcSize=4;whiteSpace=wrap;html=1;" parent="1" vertex="1">
                    <mxGeometry x="310" y="-482.5" width="160" height="175" as="geometry">
                        <mxRectangle x="470" y="-320" width="100" height="50" as="alternateBounds"/>
                    </mxGeometry>
                </mxCell>
                <mxCell id="50" value="&lt;div&gt;+borrow_id(PK)&lt;/div&gt;&lt;div&gt;+member_id(FK)&lt;/div&gt;&lt;div&gt;+book_id(FK)&lt;/div&gt;&lt;div&gt;+borrow_date&lt;/div&gt;&lt;div&gt;+due_date&lt;/div&gt;&lt;div&gt;+return_date&lt;/div&gt;&lt;div&gt;+status&lt;/div&gt;&lt;div&gt;+renewal_count&lt;/div&gt;" style="align=left;strokeColor=none;fillColor=none;spacingLeft=4;fontSize=12;verticalAlign=top;resizable=0;rotatable=0;part=1;html=1;" parent="49" vertex="1">
                    <mxGeometry y="50" width="160" height="125" as="geometry"/>
                </mxCell>
                <mxCell id="51" value="Book Request" style="swimlane;childLayout=stackLayout;horizontal=1;startSize=50;horizontalStack=0;rounded=1;fontSize=14;fontStyle=0;strokeWidth=2;resizeParent=0;resizeLast=1;shadow=0;dashed=0;align=center;arcSize=4;whiteSpace=wrap;html=1;" parent="1" vertex="1">
                    <mxGeometry x="60" y="-240" width="160" height="140" as="geometry">
                        <mxRectangle x="290" y="-210" width="130" height="50" as="alternateBounds"/>
                    </mxGeometry>
                </mxCell>
                <mxCell id="52" value="&lt;div&gt;+id(PK)&lt;/div&gt;+book_id(FK)&lt;div&gt;+requester_name(FK)&lt;/div&gt;&lt;div&gt;+requester_email(FK)&lt;/div&gt;&lt;div&gt;+requester_phone(FK)&lt;/div&gt;" style="align=left;strokeColor=none;fillColor=none;spacingLeft=4;fontSize=12;verticalAlign=top;resizable=0;rotatable=0;part=1;html=1;" parent="51" vertex="1">
                    <mxGeometry y="50" width="160" height="90" as="geometry"/>
                </mxCell>
                <mxCell id="53" value="Admin" style="swimlane;childLayout=stackLayout;horizontal=1;startSize=50;horizontalStack=0;rounded=1;fontSize=14;fontStyle=0;strokeWidth=2;resizeParent=0;resizeLast=1;shadow=0;dashed=0;align=center;arcSize=4;whiteSpace=wrap;html=1;" parent="1" vertex="1">
                    <mxGeometry x="430" y="-675" width="160" height="130" as="geometry">
                        <mxRectangle x="470" y="-640" width="80" height="50" as="alternateBounds"/>
                    </mxGeometry>
                </mxCell>
                <mxCell id="54" value="+admin_id(PK)&lt;div&gt;+email&lt;/div&gt;&lt;div&gt;+phone_no&lt;/div&gt;&lt;div&gt;+location&lt;/div&gt;&lt;div&gt;+password&lt;/div&gt;" style="align=left;strokeColor=none;fillColor=none;spacingLeft=4;fontSize=12;verticalAlign=top;resizable=0;rotatable=0;part=1;html=1;" parent="53" vertex="1">
                    <mxGeometry y="50" width="160" height="80" as="geometry"/>
                </mxCell>
                <mxCell id="56" value="" style="edgeStyle=entityRelationEdgeStyle;fontSize=12;html=1;endArrow=ERoneToMany;exitX=1;exitY=0.5;exitDx=0;exitDy=0;" parent="1" source="45" edge="1">
                    <mxGeometry width="100" height="100" relative="1" as="geometry">
                        <mxPoint x="600" y="-100" as="sourcePoint"/>
                        <mxPoint x="310" y="-412" as="targetPoint"/>
                    </mxGeometry>
                </mxCell>
                <mxCell id="57" value="" style="edgeStyle=entityRelationEdgeStyle;fontSize=12;html=1;endArrow=ERoneToMany;entryX=1;entryY=0.5;entryDx=0;entryDy=0;exitX=-0.013;exitY=0.299;exitDx=0;exitDy=0;exitPerimeter=0;" parent="1" source="48" target="49" edge="1">
                    <mxGeometry width="100" height="100" relative="1" as="geometry">
                        <mxPoint x="600" y="-100" as="sourcePoint"/>
                        <mxPoint x="700" y="-200" as="targetPoint"/>
                        <Array as="points">
                            <mxPoint x="540" y="-370"/>
                        </Array>
                    </mxGeometry>
                </mxCell>
                <mxCell id="61" value="" style="fontSize=12;html=1;endArrow=ERoneToMany;exitX=0.497;exitY=1.01;exitDx=0;exitDy=0;exitPerimeter=0;entryX=0.5;entryY=0;entryDx=0;entryDy=0;" parent="1" source="46" target="51" edge="1">
                    <mxGeometry width="100" height="100" relative="1" as="geometry">
                        <mxPoint x="130" y="-260" as="sourcePoint"/>
                        <mxPoint x="140" y="-243" as="targetPoint"/>
                    </mxGeometry>
                </mxCell>
                <mxCell id="67" value="Category" style="swimlane;childLayout=stackLayout;horizontal=1;startSize=50;horizontalStack=0;rounded=1;fontSize=14;fontStyle=0;strokeWidth=2;resizeParent=0;resizeLast=1;shadow=0;dashed=0;align=center;arcSize=4;whiteSpace=wrap;html=1;" parent="1" vertex="1">
                    <mxGeometry x="-30" y="-680" width="160" height="130" as="geometry">
                        <mxRectangle x="40" y="-590" width="100" height="50" as="alternateBounds"/>
                    </mxGeometry>
                </mxCell>
                <mxCell id="68" value="+id(PK)&lt;div&gt;+name&lt;/div&gt;&lt;div&gt;+description&lt;/div&gt;&lt;div&gt;+created_at&lt;/div&gt;&lt;div&gt;+updated_at&lt;/div&gt;&lt;div&gt;&lt;br&gt;&lt;/div&gt;&lt;div&gt;&lt;br&gt;&lt;/div&gt;" style="align=left;strokeColor=none;fillColor=none;spacingLeft=4;fontSize=12;verticalAlign=top;resizable=0;rotatable=0;part=1;html=1;" parent="67" vertex="1">
                    <mxGeometry y="50" width="160" height="80" as="geometry"/>
                </mxCell>
                <mxCell id="69" value="Shelf" style="swimlane;childLayout=stackLayout;horizontal=1;startSize=50;horizontalStack=0;rounded=1;fontSize=14;fontStyle=0;strokeWidth=2;resizeParent=0;resizeLast=1;shadow=0;dashed=0;align=center;arcSize=4;whiteSpace=wrap;html=1;" parent="1" vertex="1">
                    <mxGeometry x="170" y="-675" width="160" height="120" as="geometry">
                        <mxRectangle x="170" y="-590" width="90" height="50" as="alternateBounds"/>
                    </mxGeometry>
                </mxCell>
                <mxCell id="70" value="+id(PK)&lt;br&gt;+shelf_number&lt;br&gt;+row_number&lt;div&gt;+sub-col-number&lt;/div&gt;" style="align=left;strokeColor=none;fillColor=none;spacingLeft=4;fontSize=12;verticalAlign=top;resizable=0;rotatable=0;part=1;html=1;" parent="69" vertex="1">
                    <mxGeometry y="50" width="160" height="70" as="geometry"/>
                </mxCell>
                <mxCell id="74" value="" style="fontSize=12;html=1;endArrow=ERoneToMany;entryX=0.308;entryY=0.002;entryDx=0;entryDy=0;entryPerimeter=0;exitX=0.65;exitY=1.003;exitDx=0;exitDy=0;exitPerimeter=0;" parent="1" source="68" target="45" edge="1">
                    <mxGeometry width="100" height="100" relative="1" as="geometry">
                        <mxPoint x="120" y="-600" as="sourcePoint"/>
                        <mxPoint x="120" y="-556" as="targetPoint"/>
                        <Array as="points"/>
                    </mxGeometry>
                </mxCell>
                <mxCell id="75" value="" style="fontSize=12;html=1;endArrow=ERoneToMany;exitX=0.323;exitY=1.006;exitDx=0;exitDy=0;exitPerimeter=0;entryX=0.865;entryY=-0.001;entryDx=0;entryDy=0;entryPerimeter=0;" parent="1" source="70" target="45" edge="1">
                    <mxGeometry width="100" height="100" relative="1" as="geometry">
                        <mxPoint x="142" y="-464" as="sourcePoint"/>
                        <mxPoint x="120" y="-630" as="targetPoint"/>
                        <Array as="points"/>
                    </mxGeometry>
                </mxCell>
                <mxCell id="76" value="Book_detail" style="swimlane;childLayout=stackLayout;horizontal=1;startSize=50;horizontalStack=0;rounded=1;fontSize=14;fontStyle=0;strokeWidth=2;resizeParent=0;resizeLast=1;shadow=0;dashed=0;align=center;arcSize=4;whiteSpace=wrap;html=1;" vertex="1" parent="1">
                    <mxGeometry x="-220" y="-485" width="160" height="180" as="geometry"/>
                </mxCell>
                <mxCell id="77" value="+id(PK)&lt;div&gt;+image&lt;/div&gt;&lt;div&gt;+total_copies&lt;/div&gt;&lt;div&gt;+available&lt;/div&gt;&lt;div&gt;+shelf_id&lt;/div&gt;&lt;div&gt;+barcode&lt;/div&gt;&lt;div&gt;+created_date&lt;/div&gt;&lt;div&gt;+updated_date&lt;/div&gt;&lt;div&gt;&lt;br&gt;&lt;/div&gt;" style="align=left;strokeColor=none;fillColor=none;spacingLeft=4;fontSize=12;verticalAlign=top;resizable=0;rotatable=0;part=1;html=1;" vertex="1" parent="76">
                    <mxGeometry y="50" width="160" height="130" as="geometry"/>
                </mxCell>
                <mxCell id="78" value="" style="edgeStyle=entityRelationEdgeStyle;fontSize=12;html=1;endArrow=ERmandOne;startArrow=ERmandOne;exitX=0.992;exitY=0.2;exitDx=0;exitDy=0;exitPerimeter=0;" edge="1" parent="1" source="76">
                    <mxGeometry width="100" height="100" relative="1" as="geometry">
                        <mxPoint x="-40" y="-350" as="sourcePoint"/>
                        <mxPoint x="60" y="-450" as="targetPoint"/>
                    </mxGeometry>
                </mxCell>
            </root>
        </mxGraphModel>
    </diagram>
</mxfile>
